<svg width="20" height="25" viewBox="0 0 20 25" fill="none" xmlns="http://www.w3.org/2000/svg">
<g clip-path="url(#clip0_55_6)">
<path d="M0.0176261 12.2656C0.0245955 12.293 0.0437587 12.3828 0.0611804 12.4648C0.0960238 12.6426 0.195328 12.8828 0.305083 13.0566C0.409613 13.2207 0.611704 13.4297 0.770241 13.5391C0.839926 13.5879 2.35212 14.4883 4.12913 15.543C7.27895 17.4082 8.21623 17.9629 13.5368 21.1191C14.9497 21.957 16.1657 22.6758 16.2371 22.7168C16.481 22.8535 16.6953 22.9102 16.9741 22.9102C17.4079 22.9102 17.772 22.7383 18.0525 22.4063C18.2702 22.1465 18.3974 21.8281 18.4305 21.4473C18.4549 21.1816 18.4567 2.97852 18.4323 2.72461C18.4096 2.48242 18.3748 2.34375 18.2859 2.13867C18.15 1.82227 18.0089 1.64844 17.7337 1.46484C17.3138 1.18164 16.8173 1.13281 16.3434 1.32617C16.2702 1.35547 15.7999 1.62695 15.2964 1.92773C14.7929 2.22852 13.542 2.97656 12.5176 3.58789C11.4915 4.20117 9.39916 5.45117 7.86606 6.36719C6.33296 7.2832 4.11345 8.60742 2.93575 9.3125C1.7563 10.0156 0.749335 10.623 0.697069 10.6602C0.498463 10.8027 0.298115 11.0547 0.183132 11.3086C0.0542129 11.5938 -0.0328957 12.0938 0.0176261 12.2656Z" fill="white"/>
</g>
<defs>
<clipPath id="clip0_55_6">
<rect width="25" height="20" fill="white" transform="matrix(0 -1 1 0 0 25)"/>
</clipPath>
</defs>
</svg>
