<?xml version="1.0" standalone="no"?>
<!DOCTYPE svg PUBLIC "-//W3C//DTD SVG 20010904//EN"
 "http://www.w3.org/TR/2001/REC-SVG-20010904/DTD/svg10.dtd">
<svg version="1.0" xmlns="http://www.w3.org/2000/svg"
 width="1280.000000pt" height="1148.000000pt" viewBox="0 0 1280.000000 1148.000000"
 preserveAspectRatio="xMidYMid meet">
<g transform="translate(0.000000,1148.000000) scale(0.100000,-0.100000)"
fill="#000000" stroke="none">
<path d="M6520 11470 c-14 -4 -60 -15 -102 -25 -91 -20 -214 -77 -303 -140
-84 -60 -191 -176 -247 -267 -25 -40 -486 -908 -1026 -1928 -955 -1808 -1239
-2346 -2855 -5400 -429 -811 -797 -1509 -818 -1550 -70 -140 -99 -263 -99
-423 0 -249 88 -458 258 -619 133 -125 296 -198 491 -217 136 -14 9456 -15
9586 -1 124 13 195 33 300 84 162 78 251 159 345 317 145 241 170 526 71 798
-15 42 -154 312 -308 601 -154 289 -537 1007 -850 1595 -314 589 -954 1790
-1423 2670 -469 880 -1147 2154 -1508 2830 -360 677 -671 1255 -690 1285 -73
114 -202 229 -332 295 -146 74 -402 124 -490 95z"/>
</g>
</svg>
