<svg width="20" height="25" viewBox="0 0 20 25" fill="none" xmlns="http://www.w3.org/2000/svg">
<g clip-path="url(#clip0_55_9)">
<path d="M19.9824 12.7344C19.9754 12.707 19.9562 12.6172 19.9388 12.5352C19.904 12.3574 19.8047 12.1172 19.6949 11.9434C19.5904 11.7793 19.3883 11.5703 19.2298 11.4609C19.1601 11.4121 17.6479 10.5117 15.8709 9.45703C12.721 7.5918 11.7838 7.03711 6.46321 3.88086C5.05032 3.04297 3.83429 2.32422 3.76286 2.2832C3.51896 2.14648 3.30467 2.08984 3.02593 2.08984C2.59213 2.08984 2.22802 2.26172 1.94753 2.59375C1.72976 2.85352 1.60258 3.17187 1.56948 3.55273C1.54509 3.81836 1.54335 22.0215 1.56774 22.2754C1.59039 22.5176 1.62523 22.6562 1.71408 22.8613C1.84997 23.1777 1.99108 23.3516 2.26634 23.5352C2.6862 23.8184 3.18272 23.8672 3.65659 23.6738C3.72976 23.6445 4.20014 23.373 4.70363 23.0723C5.20711 22.7715 6.45798 22.0234 7.48237 21.4121C8.5085 20.7988 10.6008 19.5488 12.1339 18.6328C13.667 17.7168 15.8866 16.3926 17.0643 15.6875C18.2437 14.9844 19.2507 14.377 19.3029 14.3398C19.5015 14.1973 19.7019 13.9453 19.8169 13.6914C19.9458 13.4062 20.0329 12.9062 19.9824 12.7344Z" fill="white"/>
</g>
<defs>
<clipPath id="clip0_55_9">
<rect width="25" height="20" fill="white" transform="matrix(0 1 -1 0 20 0)"/>
</clipPath>
</defs>
</svg>
